<?xml version="1.0" encoding="utf-8"?>
<!-- Generator: Adobe Illustrator 21.0.2, SVG Export Plug-In . SVG Version: 6.00 Build 0)  -->
<svg version="1.1" id="DensityDesign_Logo" xmlns="http://www.w3.org/2000/svg" xmlns:xlink="http://www.w3.org/1999/xlink" x="0px"
	 y="0px" width="79px" height="93px" viewBox="0 0 79 93" style="enable-background:new 0 0 79 93;" xml:space="preserve">
<g>
	<rect x="67.6" y="9.7" width="13" height="2.1"/>
	<path d="M24.6,23.5V0h7.6v3.4h-4v6.4h2.6V13h-2.6v7h4v3.5H24.6z"/>
	<path d="M54.8,23.5l-4-11.9l-1.1-3.8v15.6h-2.4V0h2.3l3.6,12l1,3.8V0h2.4v23.5H54.8L54.8,23.5z"/>
	<path d="M26.4,58.6V35.1H30v23.5H26.4z"/>
	<path d="M7,92.6l-0.4-1.2C6.1,92.5,5.1,93,4,93c-2.5,0-4-1.8-4-4.6v-15c0-2.5,2-4.6,4.5-4.6c2.6,0,4.4,2.1,4.4,4.6v4.3H5.6v-4.5
		c0-0.5-0.3-1-1-1c-0.6,0-1,0.4-1,1v15.4c0,0.6,0.4,1,1,1c0.6,0,1-0.4,1-1v-4.8H4.7v-2.8h4.4v11.6L7,92.6L7,92.6z"/>
	<path d="M29.8,92.6L27.2,82l-0.8-3.2v13.8h-3.1V69.1h3.5L29,79.7l0.7,3.3V69.1h3.1v23.5L29.8,92.6L29.8,92.6z"/>
	<path d="M53.3,37.5v21.1h-2.5V37.5h-3.1v-2.4h8.7v2.4L53.3,37.5L53.3,37.5z"/>
	<path d="M75.2,49.3v9.3h-2.5v-9.3l-3.6-14.2h2.5L74.1,46l2.5-10.9H79L75.2,49.3z"/>
	<rect x="45.5" y="79" width="13" height="2.7"/>
	<rect x="50.6" y="73.9" width="2.7" height="13"/>
	<path d="M2.9,23.5H0.2V0h2.7c6.4,0,6.9,2.6,6.9,11.8C9.8,20.9,9.3,23.5,2.9,23.5z M3.7,20c2.4,0,2.6-0.6,2.6-8.3
		c0-7.7-0.1-8.3-2.6-8.3C3.7,3.5,3.7,20,3.7,20z"/>
	<path d="M6,45.6C4.5,43,3.7,42,3.7,39.3c0-0.8,0.5-1.2,1.1-1.2c0.6,0,1,0.4,1,1.2v1.8l3.1-0.3v-1.1c0-3.1-1.6-4.9-4.1-4.9
		c-3.2,0-4.7,2.4-4.7,5.3c0,2.7,1.9,6,3.2,8.1c1.4,2.4,2.2,4,2.2,6.1c0,0.9-0.4,1.4-1.2,1.4c-0.8,0-1.2-0.5-1.2-1.4v-1.9l-3.2,0.3
		V54c0,3.1,1.7,4.9,4.5,4.9c2.3,0,4.5-1.5,4.5-5.2C9.1,51,7.5,48.2,6,45.6z"/>
</g>
</svg>
